<svg width="28" height="28" viewBox="0 0 28 28" fill="none" xmlns="http://www.w3.org/2000/svg">
<path d="M25.9479 17.8846C24.7965 17.2198 20.3565 15.3879 17.183 14.7262C17.036 14.2512 16.7835 13.8224 16.4534 13.4664C16.8762 12.1824 17.2382 10.5911 17.5179 9.07122C19.3 10.0233 20.6353 11.6758 21.1723 13.6473C21.2914 14.0844 21.7421 14.3422 22.1793 14.2232C22.6164 14.1041 22.8742 13.6533 22.7551 13.2162C22.0506 10.6295 20.2222 8.49241 17.8013 7.38165C17.8946 6.76555 17.9706 6.19105 18.0276 5.6894C21.7796 7.20075 24.4106 10.7687 24.6867 14.8545C24.7159 15.2877 25.0764 15.6195 25.5043 15.6195C25.5229 15.6195 25.5416 15.6189 25.5604 15.6176C26.0124 15.587 26.354 15.1959 26.3234 14.7438C25.9824 9.69751 22.6234 5.55848 18.1463 3.98091C18.082 1.77531 16.269 0.000427246 14.0481 0.000427246C11.7866 0.000427246 9.94677 1.84028 9.94677 4.10172C9.94677 5.41176 10.6155 10.3468 11.6427 13.4663C11.3126 13.8223 11.0601 14.2511 10.9131 14.726C9.61257 14.9963 8.09275 15.4611 6.67093 15.9613C6.59732 13.9104 7.36245 11.958 8.80872 10.4995C9.12771 10.1778 9.12552 9.65846 8.80385 9.33952C8.48213 9.02053 7.96287 9.02266 7.64382 9.34439C5.68557 11.3192 4.81959 13.9563 5.06656 16.5548C4.48731 16.7797 3.95269 16.9989 3.4908 17.1986C2.91789 13.1353 4.70163 9.13302 8.09691 6.84501C8.47261 6.59186 8.57187 6.08206 8.31877 5.70641C8.06563 5.33076 7.55594 5.23145 7.18018 5.4846C3.1035 8.23177 1.0572 13.1114 1.95107 17.9464C0.0665397 19.1066 -0.563242 21.557 0.551235 23.4871C1.67545 25.4342 4.16433 26.1222 6.13324 24.9999C6.14002 24.9961 6.14686 24.9922 6.15364 24.9882C6.1537 24.9882 6.15381 24.9882 6.15381 24.9882C7.26249 24.348 11.1386 21.3384 13.3201 18.8933C13.7977 19.002 14.2876 19.0044 14.7755 18.8934C15.64 19.8659 16.7761 20.9446 17.901 21.9285C16.1565 23.0347 14.04 23.3541 12.0691 22.8337C11.6311 22.718 11.1823 22.9794 11.0666 23.4173C10.9509 23.8553 11.2123 24.3042 11.6503 24.4198C14.1992 25.0928 16.9777 24.6216 19.2008 23.0293C19.679 23.4211 20.1329 23.7782 20.537 24.0828C17.2802 26.6456 12.8786 27.0474 9.26399 25.275C8.85739 25.0756 8.36581 25.2436 8.16642 25.6503C7.96697 26.0571 8.13502 26.5485 8.54179 26.748C12.832 28.8516 18.131 28.3162 21.9491 25.0452C23.8826 26.0909 26.3277 25.4295 27.4492 23.4871C28.5825 21.524 27.9113 19.0181 25.9479 17.8846ZM5.33333 23.5675C4.15552 24.2476 2.652 23.8448 1.97185 22.6667C1.29176 21.4888 1.69459 19.9854 2.87256 19.3052C3.79278 18.774 7.85098 17.1079 10.8485 16.4187C10.9973 17.0763 11.3435 17.6595 11.8221 18.1023C9.7004 20.3819 6.22331 23.0537 5.33333 23.5675ZM14.048 17.3351C13.1434 17.3351 12.4075 16.5992 12.4075 15.6946C12.4075 14.79 13.1434 14.0541 14.048 14.0541C14.9526 14.0541 15.6885 14.79 15.6885 15.6946C15.6885 16.5992 14.9526 17.3351 14.048 17.3351ZM15.0194 12.5605C14.3895 12.3648 13.7079 12.3644 13.0766 12.5605C12.177 9.59704 11.5872 5.12175 11.5872 4.10172C11.5873 2.74486 12.6911 1.64094 14.0481 1.64094C15.4049 1.64094 16.5088 2.74486 16.5088 4.10172C16.5088 5.12476 15.9176 9.60169 15.0194 12.5605ZM26.0284 22.6668C25.3484 23.8446 23.845 24.2476 22.6669 23.5675C21.7149 23.0178 18.3243 20.314 16.2733 18.1028C16.7518 17.6603 17.0981 17.0774 17.2471 16.4202C20.2146 17.1118 24.2304 18.7873 25.1277 19.3053C26.3057 19.9854 26.7084 21.4888 26.0284 22.6668Z" fill="#38BDFE"/>
</svg>
